<svg width="15" height="11" viewBox="0 0 15 11" fill="none" xmlns="http://www.w3.org/2000/svg">
<path d="M13.2692 0.169189H1.73077C1.27253 0.169189 0.830769 0.334889 0.507692 0.624863C0.184615 0.914837 0 1.31133 0 1.72262V8.95422C0 9.36551 0.184615 9.762 0.507692 10.052C0.830769 10.342 1.27253 10.5077 1.73077 10.5077H13.2692C13.7275 10.5077 14.1692 10.342 14.4923 10.052C14.8154 9.762 15 9.36551 15 8.95422V1.72262C15 1.31133 14.8154 0.914837 14.4923 0.624863C14.1692 0.334889 13.7275 0.169189 13.2692 0.169189ZM1.73077 1.20481H13.2692C13.4209 1.20481 13.5692 1.26103 13.678 1.35572C13.7868 1.45336 13.8462 1.58355 13.8462 1.72262V3.26718H1.15385V1.72262C1.15385 1.58651 1.21648 1.45336 1.32198 1.35572C1.43077 1.26103 1.57912 1.20481 1.73077 1.20481ZM13.2692 9.47203H1.73077C1.57912 9.47203 1.43077 9.41581 1.32198 9.32113C1.21319 9.22348 1.15385 9.09329 1.15385 8.95422V4.3028H13.8462V8.95422C13.8462 9.09033 13.7835 9.22348 13.678 9.32113C13.5692 9.41877 13.4209 9.47203 13.2692 9.47203ZM12.1154 7.92748H9.80769C9.6033 7.92452 9.41868 7.82391 9.31648 7.66709C9.21429 7.50731 9.21429 7.31498 9.31648 7.1552C9.41868 6.99542 9.6033 6.89777 9.80769 6.89481H12.1154C12.3198 6.89777 12.5044 6.99837 12.6066 7.1552C12.7088 7.31498 12.7088 7.50731 12.6066 7.66709C12.5044 7.82391 12.3198 7.92452 12.1154 7.92748Z" fill="white"/>
</svg>
