<svg width="37" height="36" viewBox="0 0 37 36" fill="none" xmlns="http://www.w3.org/2000/svg">
<path d="M37 18C37 8.05781 28.7184 0 18.5 0C8.28164 0 0 8.05781 0 18C0 27.9422 8.28164 36 18.5 36C18.6084 36 18.7168 36 18.8252 35.993V21.9867H14.8506V17.4797H18.8252V14.1609C18.8252 10.3148 21.2389 8.21953 24.7654 8.21953C26.4564 8.21953 27.909 8.33906 28.3281 8.39531V12.4172H25.9C23.985 12.4172 23.6092 13.3031 23.6092 14.6039V17.4727H28.198L27.5982 21.9797H23.6092V35.3039C31.3416 33.1453 37 26.2195 37 18Z" fill="white"/>
</svg>
