<svg width="34" height="34" viewBox="0 0 34 34" fill="none" xmlns="http://www.w3.org/2000/svg">
<path d="M32.5767 22.8815C31.7924 25.548 30.3808 28.0576 28.3417 29.9398C26.3026 31.6652 23.9499 32.92 21.2834 33.5474C18.4601 34.1748 15.3231 34.1748 12.6566 33.3906C10.4607 32.7632 8.26475 31.6652 6.38253 30.2535C4.50032 28.685 2.93181 26.8028 1.83385 24.6069C0.108486 21.1562 -0.362068 17.2349 0.265337 13.6273C0.579039 12.0588 1.04959 10.804 1.83385 9.39233C3.87291 5.47105 7.32364 2.33403 11.5586 0.922366C15.3231 -0.332443 19.4012 -0.332443 23.0088 1.07922C25.0478 1.70662 26.93 2.96143 28.4986 4.52994C28.028 5.15735 27.4006 5.6279 26.7732 6.25531C25.8321 7.19641 24.7341 8.29437 23.6362 9.39233C22.6951 8.45122 21.2834 7.66697 19.8717 7.19641C18.3032 6.72586 16.421 6.56901 14.8525 7.03956C13.1271 7.19641 11.2449 8.13752 9.83326 9.54918C8.7353 10.6471 7.79419 12.0588 7.32364 13.6273C6.69624 15.6664 6.69624 18.176 7.32364 20.2151C7.95105 22.2541 9.36271 24.2932 11.2449 25.3912C12.3429 26.1754 13.5977 26.8028 15.0093 26.9597C16.2642 27.2734 17.6758 27.1165 19.0875 26.9597C20.3423 26.8028 21.754 26.3323 22.8519 25.3912C24.5773 24.1363 25.9889 22.2541 26.3026 20.0582C23.1656 20.0582 20.0286 20.0582 17.0484 20.0582C17.0484 17.8623 17.0484 15.6664 17.0484 13.4705C22.3814 13.4705 27.7143 13.4705 33.0472 13.4705C33.5178 16.7643 33.3609 19.9014 32.5767 22.8815Z" fill="white"/>
</svg>
