<svg width="36" height="35" viewBox="0 0 36 35" fill="none" xmlns="http://www.w3.org/2000/svg">
<path d="M32.3904 0H2.60965C1.15132 0 0 1.15132 0 2.53289V32.4671C0 33.8487 1.15132 35 2.60965 35H32.4671C33.9254 35 35.0768 33.8487 35.0768 32.4671V2.53289C35 1.15132 33.8487 0 32.3904 0ZM10.3618 29.8575H5.2193V13.125H10.4386V29.8575H10.3618ZM7.75219 10.8224C6.0636 10.8224 4.75877 9.44079 4.75877 7.82895C4.75877 6.21711 6.14035 4.83553 7.75219 4.83553C9.36404 4.83553 10.7456 6.21711 10.7456 7.82895C10.8224 9.51754 9.44079 10.8224 7.75219 10.8224ZM29.8575 29.8575H24.6382V21.7215C24.6382 19.8026 24.5614 17.2697 21.9518 17.2697C19.2654 17.2697 18.8048 19.4189 18.8048 21.568V29.8575H13.5855V13.125H18.5746V15.4276H18.6513C19.3421 14.1228 21.0307 12.7412 23.5636 12.7412C28.7829 12.7412 29.7807 16.1952 29.7807 20.7237V29.8575H29.8575Z" fill="white"/>
</svg>
