<svg width="202" height="47" viewBox="0 0 202 47" fill="none" xmlns="http://www.w3.org/2000/svg">
<g clip-path="url(#clip0_631_2006)">
<path d="M44.2559 20.2302H37.8673V37.4656H44.2559V20.2302Z" fill="white"/>
<path d="M15.5072 8.00652C14.1813 7.57869 13.0361 7.33422 12.1321 7.33422C11.228 7.33422 10.4445 7.45645 9.84183 7.70093C9.23913 7.9454 8.81724 8.31211 8.57617 8.73994C8.33509 9.16777 8.15428 9.5956 8.15428 9.96231C8.15428 10.6957 8.63644 11.368 9.54048 11.857C10.4445 12.3459 11.5294 12.8349 12.7951 13.3238C14.0607 13.7516 15.3867 14.3017 16.7729 14.7907C18.1591 15.3407 19.3645 16.013 20.3288 16.8076C21.2931 17.6021 22.0766 18.58 22.5588 19.6801C23.0409 20.7803 23.282 21.9415 23.3423 23.1027C23.4026 24.264 23.2217 25.4252 22.9204 26.5254C22.619 27.6255 22.1369 28.6034 21.4739 29.4591C20.8712 30.3147 20.0877 30.987 19.1234 31.5982C18.2193 32.1483 17.0139 32.6983 15.6277 33.1873C14.2415 33.554 12.9156 33.6762 11.5294 33.6762C10.1432 33.6762 8.81725 33.4929 7.49131 33.1262C6.16537 32.7594 4.95997 32.2705 3.69431 31.5982C2.48891 30.9259 1.40405 30.0702 0.379463 29.0312L4.53808 24.1418C5.56267 25.1808 6.7078 25.9753 7.9132 26.5254C9.48021 26.9532 10.8062 27.1977 11.8307 27.1366C12.8553 27.0754 13.6991 26.9532 14.3018 26.6476C14.9045 26.342 15.3264 25.9142 15.5675 25.4252C15.8086 24.9363 15.9291 24.4474 15.9291 24.0195C15.8688 23.1027 15.3867 22.3693 14.5429 21.7581C13.6991 21.147 12.6142 20.5969 11.4088 20.108C10.2035 19.619 8.93779 19.0689 7.61185 18.5189C6.28591 17.9688 5.14078 17.2965 4.17647 16.5631C3.21215 15.8297 2.48891 14.9129 2.00675 13.935C1.52459 12.9571 1.22324 11.9181 1.1027 10.818C0.982162 9.77895 1.04243 8.73994 1.28351 7.70093C1.7054 6.53968 2.12729 5.6229 2.60945 4.88948C3.09161 4.09495 3.75458 3.42264 4.53808 2.9337C5.32159 2.38363 6.40645 1.83357 7.79266 1.34462C9.17886 0.977911 10.6253 0.794556 12.0718 0.855674C13.5183 0.916792 14.9045 1.10015 16.2304 1.46686C17.6166 1.83357 18.8823 2.44475 20.0877 3.17817C21.2931 3.91159 22.4382 4.82837 23.4026 5.86738L18.822 10.329C17.8577 9.29 16.7126 8.49547 15.5072 8.00652Z" fill="white"/>
<path d="M86.927 0.794556V20.3524C86.8667 22.186 86.5654 23.8973 85.8421 25.4864C85.1792 27.0754 84.2149 28.4812 83.0095 29.6424C81.8041 30.8648 80.4178 31.7816 78.8508 32.4539C77.2838 33.1262 75.5963 33.4929 73.7882 33.4929H72.2814C70.4733 33.4929 68.7858 33.1262 67.2187 32.4539C65.6517 31.7816 64.2655 30.8037 63.0601 29.6424C61.8547 28.42 60.9507 27.0754 60.2274 25.4864C59.5645 23.8973 59.2029 22.186 59.1426 20.3524V0.794556H65.4106V20.2302C65.4106 21.147 65.5915 22.0637 65.9531 22.9194C66.3147 23.7751 66.7969 24.5085 67.3996 25.1197C68.0023 25.7308 68.7255 26.2198 69.5693 26.5865C70.413 26.9532 71.3171 27.1366 72.2211 27.1366H73.7279C74.6319 27.1366 75.536 26.9532 76.3798 26.5865C77.2235 26.2198 77.9468 25.7308 78.5495 25.1197C79.1522 24.5085 79.6343 23.7751 79.996 22.9194C80.3576 22.0637 80.5384 21.147 80.5384 20.2302V0.794556H86.927Z" fill="white"/>
<path d="M98.7399 0.794556H105.912L118.448 33.554H111.276L108.865 27.2588H95.7264L93.3156 33.554H86.1435L98.7399 0.794556ZM98.2577 20.8414H106.454L102.356 10.1457L98.2577 20.8414Z" fill="white"/>
<path d="M133.998 0.794556C136.228 0.794556 138.337 1.22238 140.266 2.07804C142.194 2.9337 143.942 4.09495 145.389 5.6229C146.835 7.08974 147.98 8.86218 148.884 10.818C149.728 12.7738 150.15 14.9129 150.15 17.1743C150.15 19.4356 149.728 21.5748 148.884 23.5306C148.041 25.4864 146.896 27.2588 145.389 28.7256C143.942 30.1925 142.194 31.4148 140.266 32.2705C138.337 33.1262 136.228 33.554 133.998 33.554H121.462V0.794556H133.998ZM133.998 27.1366C135.324 27.1366 136.589 26.8921 137.795 26.342C139 25.8531 140.025 25.1197 140.929 24.2029C141.833 23.2861 142.556 22.2471 143.038 21.0247C143.52 19.8024 143.822 18.5189 143.822 17.1743C143.822 15.8297 143.581 14.5462 143.038 13.3238C142.556 12.1014 141.833 11.0624 140.929 10.1457C140.025 9.22889 139 8.49547 137.795 8.00652C136.589 7.51757 135.324 7.21198 133.998 7.21198H127.79V27.1366H133.998Z" fill="white"/>
<path d="M55.9483 10.8791C55.1648 8.92329 54.0196 7.2731 52.6937 5.86738C51.3075 4.46166 49.7405 3.30041 47.9324 2.44475C46.1243 1.58909 44.2559 1.03903 42.3273 0.916792C40.3987 0.733437 38.4097 0.977911 36.4208 1.52798C34.4319 2.13916 32.5636 3.17817 30.8157 4.58389C29.0679 6.05073 27.6817 7.70093 26.7174 9.53448C25.7531 11.368 25.2106 13.3238 24.9696 15.2796C24.7285 17.2354 24.849 19.2523 25.3312 21.2081C25.8133 23.1639 26.5969 24.9363 27.742 26.5865C28.8871 28.2367 30.2733 29.6424 31.9609 30.8037C33.6484 32.026 35.6373 32.8206 37.8673 33.2484V26.6476C35.999 25.9753 34.4922 24.9363 33.4073 23.4695C32.3225 22.0026 31.6595 20.4135 31.3582 18.7022C31.1171 16.9909 31.2979 15.2185 31.9609 13.5072C32.6238 11.7959 33.769 10.329 35.336 9.16777C36.9633 8.00652 38.6508 7.39533 40.4589 7.2731C42.267 7.21198 43.9546 7.57869 45.4613 8.37323C46.9681 9.16777 48.294 10.329 49.2583 11.9181C50.2829 13.4461 50.7651 15.2185 50.7651 17.2354C50.7651 19.3745 50.1624 21.3303 48.957 23.0416C47.7516 24.7529 46.1846 25.9753 44.1957 26.7087V33.3095C46.064 32.9428 47.8119 32.2705 49.3789 31.2926C50.9459 30.3147 52.3321 29.0923 53.4772 27.6866C54.6223 26.2809 55.5264 24.6918 56.1291 22.9194C56.7921 21.147 57.0934 19.2523 57.0934 17.2965C57.2139 14.9129 56.7921 12.7737 55.9483 10.8791Z" fill="white"/>
<path d="M191.435 26.0364H195.594C197.161 26.0364 198.245 25.303 198.245 23.8362C198.245 22.3693 197.161 21.6359 195.594 21.6359H191.435V26.0364ZM191.435 33.6762H196.98C199.933 33.6762 201.44 32.1482 201.44 29.1534V26.5254H201.018C200.656 28.42 198.366 29.5202 195.714 29.5202H191.555C191.435 29.5202 191.435 29.5813 191.435 29.6424V33.6762ZM183.66 23.8362L187.939 28.0533V19.619L183.66 23.8362ZM169.135 33.6762H187.939V32.6983C187.939 30.7425 188.542 30.0702 190.531 29.8869V29.459H184.624C184.444 29.459 184.263 29.3979 184.142 29.3368L181.31 26.342L178.477 29.2757C178.356 29.3979 178.236 29.459 178.115 29.459H173.836C173.535 29.459 173.475 29.3368 173.716 29.0923L179.08 23.775L173.595 18.4577C173.414 18.2744 173.475 18.091 173.716 18.091H178.055C178.176 18.091 178.296 18.1521 178.417 18.2744L181.43 21.3303L184.203 18.2744C184.323 18.1521 184.504 18.091 184.624 18.091H195.774C198.366 18.091 200.777 19.1912 201.138 21.0858H201.56V4.52276C201.56 1.52796 200.054 0 197.1 0H169.195C166.242 0 164.735 1.52796 164.735 4.52276V29.1534C164.675 32.1482 166.182 33.6762 169.135 33.6762Z" fill="white"/>
<path d="M41.6643 42.905C41.4835 42.7828 41.2424 42.7217 41.0013 42.6606C40.7603 42.6606 40.5794 42.6606 40.3384 42.7217C40.0973 42.7828 39.9165 42.905 39.7357 43.0273C39.5549 43.1495 39.4343 43.3329 39.3138 43.5773C39.1932 43.8218 39.133 44.0663 39.133 44.3108C39.133 44.6163 39.1932 44.8608 39.3138 45.0442C39.4343 45.2886 39.5549 45.472 39.7357 45.5942C39.9165 45.7165 40.0973 45.8387 40.3384 45.8998C40.5794 45.9609 40.7603 45.9609 41.0013 45.9609C41.2424 45.8998 41.4232 45.8387 41.6643 45.7165C41.8451 45.5942 42.0259 45.4109 42.2067 45.1664L43.1108 45.7165C42.93 45.961 42.7492 46.2054 42.5684 46.3888C42.3273 46.5721 42.0862 46.7555 41.8451 46.8166C41.604 46.9388 41.3027 47 41.0013 47C40.7 47 40.3986 47 40.0973 46.8777C39.7959 46.8166 39.5549 46.6944 39.3138 46.511C39.0727 46.3277 38.8919 46.1443 38.7111 45.8998C38.5303 45.6554 38.4097 45.4109 38.2892 45.1664C38.1687 44.8608 38.1687 44.6163 38.1687 44.3108C38.1687 44.0052 38.2289 43.6996 38.2892 43.4551C38.4097 43.1495 38.5303 42.905 38.7111 42.6606C38.8919 42.4161 39.0727 42.2327 39.3138 42.0494C39.5549 41.866 39.7959 41.7438 40.0973 41.6827C40.3986 41.6215 40.7 41.5604 41.0013 41.5604C41.3027 41.5604 41.5438 41.6215 41.8451 41.7438C42.0862 41.866 42.3273 41.9883 42.5684 42.1716C42.8094 42.355 42.9902 42.5994 43.1108 42.8439L42.2067 43.394C42.0259 43.2106 41.8451 43.0273 41.6643 42.905Z" fill="white"/>
<path d="M48.957 41.5604H50.1624L52.2718 47H51.0664L50.6445 45.9609H48.4748L48.0529 47H46.8475L48.957 41.5604ZM48.8967 44.9219H50.2829L49.6199 43.1495L48.8967 44.9219Z" fill="white"/>
<path d="M58.9618 41.5604C59.2028 41.5604 59.3836 41.6215 59.5645 41.6827C59.7453 41.7438 59.9261 41.866 60.0466 42.0494C60.1672 42.1716 60.2877 42.355 60.4082 42.5383C60.4685 42.7217 60.5288 42.9661 60.5288 43.1495V43.4551C60.5288 43.6996 60.4685 43.8829 60.4082 44.0663C60.348 44.2496 60.2274 44.433 60.0466 44.5552C59.9261 44.6775 59.7453 44.7997 59.5645 44.9219C59.3836 44.9831 59.1426 45.0442 58.9618 45.0442H57.3947V46.8777H56.3099V41.5604H58.9618ZM59.5042 43.2106C59.5042 43.0884 59.4439 42.905 59.3234 42.8439C59.2028 42.7217 59.0823 42.6606 58.9015 42.6606H57.3345V44.0663H58.9618C59.1426 44.0663 59.2631 44.0052 59.3836 43.8829C59.5042 43.7607 59.5645 43.6384 59.5645 43.5162V43.2106H59.5042Z" fill="white"/>
<path d="M64.9285 47V41.5604H65.9531V47H64.9285Z" fill="white"/>
<path d="M73.6676 41.5604V42.5994H72.5225V46.9388H71.4979V42.5994H70.3528V41.5604H73.6676Z" fill="white"/>
<path d="M78.9713 41.5604H80.1767L82.2862 47H81.0808L80.6589 45.9609H78.4892L78.0673 47H76.8619L78.9713 41.5604ZM78.8508 44.9219H80.237L79.574 43.1495L78.8508 44.9219Z" fill="white"/>
<path d="M89.5788 47H86.5051V41.5604H87.5297V45.8998H89.5788V47Z" fill="white"/>
</g>
<defs>
<clipPath id="clip0_631_2006">
<rect width="201" height="47" fill="white" transform="translate(0.5)"/>
</clipPath>
</defs>
</svg>
