<svg width="42" height="39" viewBox="0 0 42 39" fill="none" xmlns="http://www.w3.org/2000/svg">
<path d="M5.13918 30.5217V35.9418C5.13918 37.2135 5.81538 38.2279 6.91234 38.7426C7.33309 38.9092 7.75385 39 8.1746 39C8.92594 39 9.60215 38.7426 10.1882 38.243L19.1893 30.5217H35.1778C38.9646 30.5217 42 27.4635 42 23.6483V6.87345C42 3.05823 38.9646 0 35.1778 0H6.82218C3.03542 0 0 3.05823 0 6.87345V25.0109C0 27.9783 2.26905 30.3552 5.13918 30.5217ZM3.36601 6.87345C3.36601 4.92042 4.88372 3.3913 6.82218 3.3913H35.268C37.2064 3.3913 38.7242 4.92042 38.7242 6.87345V23.6634C38.7242 25.6165 37.2064 27.1456 35.268 27.1456H19.0991C18.3478 27.1456 17.6716 27.403 17.0855 27.9026L8.50519 35.3665V30.2795C8.50519 29.4317 8.1746 28.6747 7.57352 28.0691C6.98748 27.4786 6.22111 27.1304 5.46977 27.1304C4.29767 27.1304 3.36601 26.1918 3.36601 25.0109V6.87345Z" fill="#3B52A1"/>
<path d="M22.0293 8.06949C23.9979 8.38742 24.9746 9.03843 24.9746 10.0225C24.9746 10.4464 24.8243 10.7946 24.5238 11.0974C24.2233 11.3851 23.8626 11.5365 23.4419 11.5365C23.3066 11.5365 23.1864 11.5214 23.0662 11.4911C22.946 11.4608 22.7807 11.4154 22.5853 11.3548C22.39 11.2943 22.2397 11.2488 22.1496 11.2186C21.7438 11.0823 21.3682 11.0066 21.0225 11.0066C20.6619 11.0066 20.3163 11.1126 20.0007 11.3094C19.6852 11.5062 19.5048 11.7787 19.4748 12.1269C19.4748 12.4449 19.595 12.7023 19.8204 12.8688C20.0458 13.0353 20.3463 13.1716 20.737 13.2624C21.3832 13.4441 21.9692 13.6258 22.4952 13.8226C23.2315 14.08 23.8326 14.3676 24.3284 14.7007C24.8243 15.0338 25.2 15.4577 25.4705 15.9724C25.741 16.4872 25.8762 17.1231 25.8762 17.8649C25.8762 19.0458 25.5306 20.0299 24.8243 20.8323C24.2082 21.5439 23.2766 22.0586 22.0293 22.3463V23.6937C22.0293 24.0116 21.9392 24.2842 21.7589 24.5113C21.5785 24.7232 21.3381 24.8443 21.0225 24.8443C20.707 24.8443 20.4665 24.7384 20.2712 24.5113C20.0909 24.2842 20.0007 24.0268 20.0007 23.7089V22.4977C19.1742 22.4371 18.4079 22.2706 17.7166 22.0132C16.6497 21.6044 16.1088 21.0291 16.1088 20.2873C16.1088 19.8936 16.244 19.5303 16.4995 19.1972C16.7549 18.8641 17.0705 18.6976 17.4462 18.6976C17.7317 18.6976 17.9721 18.7279 18.1524 18.8036L19.2644 19.1821C19.9106 19.3789 20.4215 19.4697 20.7821 19.4697C21.263 19.4697 21.6687 19.3486 22.0293 19.0912C22.39 18.8339 22.5553 18.4856 22.5553 18.0163C22.5553 17.5621 22.3299 17.229 21.8941 16.9868C21.5785 16.8203 20.9474 16.5932 19.9707 16.3207C19.2193 16.1087 18.6483 15.927 18.2726 15.7756C17.897 15.6242 17.5363 15.3971 17.2057 15.0792C16.8601 14.7461 16.5896 14.3525 16.4093 13.8832C16.214 13.429 16.1238 12.9596 16.1238 12.4903C16.1238 12.0967 16.1689 11.7182 16.2741 11.3397C16.3792 10.9612 16.5145 10.613 16.7098 10.2799C16.9052 9.94682 17.1456 9.64402 17.4161 9.35637C18.0623 8.75078 18.9188 8.32686 19.9857 8.09977V6.88859C19.9857 6.57065 20.0758 6.29814 20.2562 6.08618C20.4365 5.85908 20.6919 5.75311 21.0075 5.75311C21.3081 5.75311 21.5485 5.85908 21.7288 6.08618C21.9091 6.31328 21.9993 6.57065 21.9993 6.88859V8.06949H22.0293Z" fill="#3B52A1"/>
</svg>
