<svg width="42" height="42" viewBox="0 0 42 42" fill="none" xmlns="http://www.w3.org/2000/svg">
<path d="M11.4414 16.3655C11.731 16.2207 12.1655 16.2207 12.6 16.2207C13.0345 16.2207 13.6138 16.3655 14.3379 16.5103C14.9172 16.8 15.4966 17.0897 16.0759 17.669L18.3931 15.4966C17.9586 14.9172 17.3793 14.4828 16.6552 14.1931C16.0759 13.7586 15.3517 13.469 14.6276 13.3241C14.0483 13.0345 13.3241 12.8897 12.6 12.8897C11.8759 12.8897 11.1517 12.8897 10.4276 13.1793C9.70345 13.3241 9.12414 13.6138 8.68966 13.9034C8.25517 14.1931 7.96552 14.4828 7.67586 14.9172C7.53103 15.3517 7.24138 15.7862 7.24138 16.2207C7.24138 16.6552 7.09655 17.2345 7.09655 17.8138C7.09655 18.3931 7.24138 18.8276 7.53103 19.4069C7.82069 19.8414 8.11034 20.2759 8.68966 20.7103C9.12414 21.1448 9.70345 21.4345 10.4276 21.7241C11.1517 22.0138 11.731 22.3034 12.3103 22.5931C12.8897 22.8828 13.469 23.1724 13.9034 23.4621C14.3379 23.7517 14.6276 24.1862 14.6276 24.6207C14.6276 24.9103 14.6276 25.0552 14.4828 25.3448C14.3379 25.6345 14.1931 25.7793 13.9034 25.9241C13.6138 26.069 13.1793 26.2138 12.6 26.2138C12.0207 26.2138 11.4414 26.069 10.5724 25.9241C9.9931 25.6345 9.41379 25.2 8.83448 24.7655L6.8069 27.2276C7.24138 27.6621 7.82069 28.0966 8.54483 28.531C9.12414 28.8207 9.84828 29.1103 10.4276 29.2552C11.1517 29.4 11.731 29.5448 12.4552 29.5448C13.1793 29.5448 13.9034 29.4 14.4828 29.2552C15.2069 28.9655 15.7862 28.6759 16.2207 28.3862C16.6552 28.0966 17.0897 27.8069 17.3793 27.3724C17.669 26.9379 17.9586 26.5034 18.1034 25.9241C18.2483 25.3448 18.3931 24.7655 18.2483 24.1862C18.1034 23.6069 18.1034 23.0276 17.8138 22.4483C17.5241 21.869 17.2345 21.4345 16.6552 21C16.2207 20.5655 15.4966 20.2759 14.7724 19.9862C14.0483 19.6966 13.3241 19.4069 12.7448 19.2621C12.1655 18.9724 11.5862 18.8276 11.1517 18.5379C10.7172 18.2483 10.4276 17.9586 10.4276 17.5241C10.4276 17.3793 10.4276 17.0897 10.5724 16.9448C10.8621 16.6552 11.1517 16.3655 11.4414 16.3655Z" fill="#3B52A1"/>
<path d="M34.7586 17.9586C34.3241 16.9448 33.7448 16.2207 33.1655 15.4966C32.4414 14.7724 31.7172 14.1931 30.7034 13.7586C29.8345 13.3241 28.8207 13.0345 27.8069 13.0345C26.7931 12.8897 25.7793 13.0345 24.7655 13.3241C23.7517 13.6138 22.8828 14.1931 21.869 14.9172C21 15.6414 20.2759 16.5103 19.8414 17.3793C19.4069 18.2483 19.1172 19.2621 18.9724 20.2759C18.8276 21.2897 18.9724 22.3034 19.1172 23.1724C19.4069 24.1862 19.6966 25.0552 20.2759 25.9241C20.8552 26.7931 21.5793 27.5172 22.4483 28.0965C23.3172 28.6759 24.331 29.1103 25.4897 29.2552V25.9241C24.4759 25.6345 23.7517 25.0552 23.1724 24.331C22.5931 23.6069 22.3034 22.7379 22.1586 21.869C22.0138 21 22.1586 20.131 22.4483 19.2621C22.7379 18.3931 23.3172 17.669 24.1862 17.0897C25.0552 16.5103 25.9241 16.2207 26.7931 16.2207C27.6621 16.2207 28.531 16.3655 29.4 16.8C30.1241 17.2345 30.8483 17.8138 31.2828 18.5379C31.8621 19.2621 32.0069 20.131 32.0069 21.1448C32.0069 22.1586 31.7172 23.1724 31.1379 24.0414C30.5586 24.9103 29.6897 25.4897 28.6759 25.9241V22.7379H25.4897V31.4276H28.6759V29.4C29.6897 29.2552 30.5586 28.8207 31.2828 28.3862C32.1517 27.9517 32.731 27.2276 33.3103 26.6483C33.8897 25.9241 34.3241 25.2 34.6138 24.1862C34.9034 23.1724 35.0483 22.3034 35.0483 21.4345C35.4828 19.9862 35.1931 18.8276 34.7586 17.9586Z" fill="#3B52A1"/>
<path d="M21 0C9.41379 0 0 9.41379 0 21C0 32.5862 9.41379 42 21 42C32.5862 42 42 32.5862 42 21C42 9.41379 32.5862 0 21 0ZM21 38.5241C11.4414 38.5241 3.62069 30.7034 3.62069 21.1448C3.62069 11.5862 11.4414 3.76552 21 3.76552C30.5586 3.76552 38.3793 11.5862 38.3793 21.1448C38.3793 30.7034 30.7034 38.5241 21 38.5241Z" fill="#3B52A1"/>
</svg>
