<svg width="37" height="30" viewBox="0 0 37 30" fill="none" xmlns="http://www.w3.org/2000/svg">
<path d="M36.8281 3.50148C35.6246 4.01079 34.3351 4.35032 33.1316 4.52009C33.7334 4.43521 34.593 3.33171 34.9369 2.90729C35.4527 2.3131 35.9684 1.54914 36.1404 0.78518C36.1404 0.700296 36.2263 0.615412 36.1404 0.615412C36.0544 0.615412 35.9684 0.615412 35.9684 0.615412C34.593 1.37937 33.1316 1.88868 31.4983 2.3131C31.4124 2.3131 31.2404 2.3131 31.1545 2.22821C30.9825 2.05845 30.8966 1.97356 30.7247 1.80379C30.0369 1.29449 29.3492 0.78518 28.5756 0.530527C27.544 0.106105 26.4265 -0.0636633 25.3089 0.0212211C24.1914 0.106105 23.1598 0.360759 22.2142 0.870065C21.2686 1.37937 20.409 2.05845 19.7213 2.90729C19.0336 3.75613 18.5178 4.77475 18.2599 5.87824C18.002 6.89685 18.002 8.00035 18.174 9.01896C18.174 9.18873 18.174 9.18873 18.002 9.18873C11.9846 8.255 6.9127 6.13289 2.78645 1.46426C2.61452 1.29449 2.52855 1.29449 2.35663 1.54914C0.55139 4.18055 1.49699 8.42477 3.73205 10.5469C3.98994 10.8015 4.33379 11.1411 4.67765 11.3957C4.59168 11.3957 3.04434 11.226 1.75488 10.5469C1.58295 10.462 1.49699 10.462 1.49699 10.7167C1.49699 10.9713 1.49699 11.226 1.58295 11.5655C1.92681 14.2818 3.81801 16.7434 6.39692 17.6772C6.56885 17.7621 6.9127 17.9318 7.25656 17.9318C6.65481 18.1016 6.05307 18.1865 4.33379 18.1016C4.16187 18.1016 4.0759 18.1865 4.16187 18.3562C5.45132 21.7516 8.20216 22.7702 10.1793 23.3644C10.4372 23.4493 10.6951 23.4493 11.039 23.4493C11.039 23.4493 11.039 23.4493 10.953 23.5342C10.3513 24.5528 7.94427 25.2319 6.82674 25.6563C4.84958 26.3354 2.61452 26.6749 0.55139 26.4203C0.207535 26.3354 0.121571 26.3354 0.0356073 26.4203C-0.0503564 26.5051 0.0356073 26.59 0.121571 26.6749C0.55139 26.9296 0.981208 27.1842 1.41103 27.4389C2.78645 28.1179 4.16187 28.7121 5.62325 29.1366C13.1881 31.1738 21.6985 29.6459 27.2861 24.1284C31.7562 19.7993 33.3036 13.7725 33.3036 7.7457C33.3036 7.49104 33.5615 7.40616 33.7334 7.23639C34.8509 6.38755 35.7965 5.36894 36.6561 4.18055C37 3.9259 37 3.67125 37 3.58636C37 3.4166 37 3.50148 36.8281 3.50148Z" fill="white"/>
</svg>
