<svg width="36" height="36" viewBox="0 0 36 36" fill="none" xmlns="http://www.w3.org/2000/svg">
<path d="M27.6362 6.42493C26.5144 6.42493 25.4946 7.34278 25.4946 8.56657C25.4946 9.68839 26.4125 10.7082 27.6362 10.7082C28.758 10.7082 29.7777 9.79037 29.7777 8.56657C29.6758 7.34278 28.758 6.42493 27.6362 6.42493Z" fill="white"/>
<path d="M18.1522 9.17847C13.2572 9.17847 9.28005 13.1558 9.28005 18.051C9.28005 22.9462 13.2572 26.9235 18.1522 26.9235C23.0472 26.9235 27.0243 22.9462 27.0243 18.051C27.0243 13.1558 23.0472 9.17847 18.1522 9.17847ZM18.1522 23.762C14.9909 23.762 12.4414 21.2125 12.4414 18.051C12.4414 14.8895 14.9909 12.3399 18.1522 12.3399C21.3135 12.3399 23.863 14.8895 23.863 18.051C23.863 21.2125 21.3135 23.762 18.1522 23.762Z" fill="white"/>
<path d="M25.2907 0H10.8097C4.89497 0 0 4.89518 0 10.8102V25.1898C0 31.2068 4.89497 36 10.8097 36H25.1887C31.2054 36 35.9984 31.1048 35.9984 25.1898V10.8102C36.1004 4.89518 31.2054 0 25.2907 0ZM32.7351 25.2918C32.7351 29.3711 29.3698 32.7365 25.2907 32.7365H10.8097C6.73059 32.7365 3.36529 29.3711 3.36529 25.2918V10.8102C3.36529 6.73088 6.73059 3.36544 10.8097 3.36544H25.1887C29.2679 3.36544 32.6331 6.73088 32.6331 10.8102V25.2918H32.7351Z" fill="white"/>
</svg>
