<svg width="35" height="34" viewBox="0 0 35 34" fill="none" xmlns="http://www.w3.org/2000/svg">
<path d="M26.1577 19.5389C26.0915 19.5058 23.6077 18.2915 23.1772 18.1259C23.0006 18.0596 22.8019 17.9934 22.6032 17.9934C22.272 17.9934 21.985 18.159 21.7642 18.4902C21.5214 18.8545 20.7707 19.7376 20.5389 19.9915C20.5058 20.0246 20.4727 20.0687 20.4396 20.0687C20.4175 20.0687 20.0311 19.9142 19.9207 19.859C17.2603 18.6999 15.2402 15.9291 14.9642 15.4545C14.9201 15.3882 14.9201 15.3551 14.9201 15.3551C14.9311 15.322 15.0194 15.2337 15.0636 15.1785C15.1961 15.046 15.3396 14.8694 15.4831 14.7038C15.5493 14.6265 15.6155 14.5382 15.6818 14.4609C15.8915 14.2181 15.9798 14.0415 16.0792 13.8207L16.1344 13.7103C16.3883 13.1915 16.1675 12.7609 16.1013 12.6174C16.0461 12.496 14.9974 9.97913 14.887 9.71419C14.622 9.07393 14.2688 8.77588 13.772 8.77588C13.7279 8.77588 13.772 8.77588 13.5844 8.78692C13.3525 8.79796 12.0831 8.96354 11.5201 9.31679C10.924 9.69211 9.91943 10.8843 9.91943 12.9817C9.91943 14.8694 11.1227 16.6577 11.6305 17.3421C11.6415 17.3642 11.6636 17.3973 11.6967 17.4415C13.6727 20.3226 16.1344 22.4532 18.6181 23.4577C21.0136 24.4181 22.1506 24.5285 22.8019 24.5285C23.0779 24.5285 23.2876 24.5064 23.4863 24.4843L23.6077 24.4733C24.4357 24.396 26.2571 23.4577 26.6766 22.2986C27.0077 21.3934 27.085 20.3999 26.8753 20.0356C26.7428 19.8148 26.4779 19.6934 26.1577 19.5389Z" fill="white"/>
<path d="M18.298 0C9.09153 0 1.60712 7.44026 1.60712 16.5695C1.60712 19.5279 2.40192 22.4201 3.89218 24.9481L1.02205 33.4039C0.966858 33.5584 1.01101 33.7351 1.1214 33.8565C1.20972 33.9448 1.3201 33.989 1.44153 33.989C1.48569 33.989 1.52985 33.9779 1.574 33.9669L10.3941 31.163C12.8117 32.4545 15.5383 33.139 18.298 33.139C27.5045 33.139 35 25.7097 35 16.5695C35 7.44026 27.5045 0 18.298 0ZM18.298 29.6948C15.7039 29.6948 13.187 28.9442 11.0234 27.5201C10.9461 27.476 10.8688 27.4429 10.7805 27.4429C10.7363 27.4429 10.6922 27.4539 10.648 27.4649L6.23244 28.8669L7.65647 24.661C7.70062 24.5286 7.67855 24.374 7.59023 24.2636C5.94543 22.0117 5.07335 19.3513 5.07335 16.5695C5.07335 9.33896 11.0123 3.44416 18.298 3.44416C25.5948 3.44416 31.5227 9.32792 31.5227 16.5695C31.5227 23.811 25.5948 29.6948 18.298 29.6948Z" fill="white"/>
</svg>
